<svg width="75" height="75" viewBox="0 0 75 75" fill="none" xmlns="http://www.w3.org/2000/svg">
<circle opacity="0.2" cx="37.5" cy="37.5" r="37.5" fill="#7C2AE8" fill-opacity="0.3"/>
<path d="M47.4453 53H28.5928V49.6294L35.8101 42.3169C37.2065 40.895 38.3555 39.6699 39.2568 38.6416C40.1582 37.6006 40.8247 36.6167 41.2563 35.6899C41.7007 34.7632 41.9229 33.7539 41.9229 32.6621C41.9229 31.3164 41.5356 30.3008 40.7612 29.6152C39.9868 28.917 38.9648 28.5679 37.6953 28.5679C36.4893 28.5679 35.3721 28.8091 34.3438 29.2915C33.3281 29.7612 32.2744 30.4341 31.1826 31.3101L28.7261 28.3584C29.5005 27.6982 30.3257 27.0952 31.2017 26.5493C32.0903 26.0034 33.0806 25.5718 34.1724 25.2544C35.2642 24.9243 36.5083 24.7593 37.9048 24.7593C39.6694 24.7593 41.1929 25.0767 42.4751 25.7114C43.7573 26.3335 44.7412 27.2031 45.4268 28.3203C46.125 29.4375 46.4741 30.7388 46.4741 32.2241C46.4741 33.7222 46.1758 35.106 45.5791 36.3755C44.9824 37.645 44.1318 38.9019 43.0273 40.146C41.9229 41.3774 40.6089 42.7168 39.0854 44.1641L34.2676 48.8677V49.0771H47.4453V53Z" fill="#7C2AE8"/>
</svg>
