<svg width="75" height="75" viewBox="0 0 75 75" fill="none" xmlns="http://www.w3.org/2000/svg">
<circle opacity="0.2" cx="37.5" cy="37.5" r="37.5" fill="#7C2AE8" fill-opacity="0.3"/>
<path d="M46.3789 31.5195C46.3789 32.7764 46.125 33.8682 45.6172 34.7949C45.1094 35.7217 44.4111 36.4834 43.5225 37.0801C42.6465 37.6641 41.6309 38.083 40.4756 38.3369V38.4702C42.6973 38.7495 44.373 39.4478 45.5029 40.5649C46.6455 41.6821 47.2168 43.1611 47.2168 45.002C47.2168 46.6143 46.8296 48.0552 46.0552 49.3247C45.2808 50.5815 44.0938 51.5718 42.4941 52.2954C40.8945 53.019 38.8379 53.3809 36.3242 53.3809C34.8135 53.3809 33.4106 53.2603 32.1157 53.019C30.8335 52.7778 29.6147 52.3906 28.4595 51.8574V47.8774C29.6401 48.4614 30.897 48.9121 32.23 49.2295C33.563 49.5469 34.8262 49.7056 36.0195 49.7056C38.3428 49.7056 39.9995 49.2739 40.9897 48.4106C41.98 47.5347 42.4751 46.3286 42.4751 44.7925C42.4751 43.8022 42.2148 42.9897 41.6943 42.355C41.1865 41.7202 40.3931 41.2441 39.314 40.9268C38.2476 40.6094 36.8701 40.4507 35.1816 40.4507H32.7251V36.8516H35.2007C36.813 36.8516 38.1079 36.6611 39.0854 36.2803C40.063 35.8867 40.7676 35.3472 41.1992 34.6616C41.6436 33.9761 41.8657 33.1763 41.8657 32.2622C41.8657 31.0688 41.4785 30.1421 40.7041 29.4819C39.9297 28.8091 38.7808 28.4727 37.2573 28.4727C36.3179 28.4727 35.4609 28.5806 34.6865 28.7964C33.9248 29.0122 33.2202 29.2852 32.5728 29.6152C31.9253 29.9453 31.3096 30.3008 30.7256 30.6816L28.5737 27.5776C29.6274 26.7905 30.8843 26.124 32.3442 25.5781C33.8042 25.0322 35.5054 24.7593 37.4478 24.7593C40.3042 24.7593 42.5068 25.375 44.0557 26.6064C45.6045 27.8252 46.3789 29.4629 46.3789 31.5195Z" fill="#7C2AE8"/>
</svg>
