<svg width="75" height="75" viewBox="0 0 75 75" fill="none" xmlns="http://www.w3.org/2000/svg">
<circle opacity="0.2" cx="37.5" cy="37.5" r="37.5" fill="#7C2AE8" fill-opacity="0.3"/>
<path d="M48.4546 46.8872H44.6841V53H40.2661V46.8872H27.6025V43.4976L40.3232 25.083H44.6841V43.1738H48.4546V46.8872ZM40.2661 43.1738V36.2612C40.2661 35.6899 40.2725 35.1123 40.2852 34.5283C40.3105 33.9316 40.3359 33.3604 40.3613 32.8145C40.3867 32.2686 40.4121 31.7671 40.4375 31.3101C40.4629 30.8403 40.4819 30.4531 40.4946 30.1484H40.3423C40.1011 30.6562 39.8345 31.1768 39.5425 31.71C39.2505 32.2305 38.9395 32.7383 38.6094 33.2334L31.7539 43.1738H40.2661Z" fill="#7C2AE8"/>
</svg>
