<svg width="484" height="202" viewBox="0 0 484 202" fill="none" xmlns="http://www.w3.org/2000/svg">
<path d="M88.466 26.0859C82.779 32.8619 73.7191 38.2313 64.6744 37.4448C63.4795 28.3093 67.9868 18.5234 73.1898 12.4583C78.8616 5.54614 88.7836 0.585133 96.8301 0.176758C97.783 9.72063 94.0471 19.0981 88.466 26.0859ZM96.7394 39.2446C83.5957 38.443 72.3125 46.792 66.081 46.792C59.7134 46.792 50.1695 39.6379 39.7786 39.8799C26.3023 40.0463 13.7031 47.7449 6.8515 60.1323C-7.41138 84.7709 3.14587 121.252 16.8491 141.338C23.5495 151.26 31.5658 162.135 42.1381 161.833C52.1358 161.424 56.159 155.223 68.2136 155.223C80.4195 155.223 83.8831 161.833 94.5311 161.591C105.466 161.424 112.394 151.669 119.094 141.747C126.732 130.479 129.878 119.437 130.045 118.893C129.878 118.651 108.854 110.544 108.703 86.117C108.537 65.6226 125.235 55.867 125.946 55.3074C116.568 41.1353 101.761 39.6379 96.7243 39.2598L96.7394 39.2446ZM172.606 11.5054V160.562H195.521V109.606H227.208C256.112 109.606 276.44 89.5202 276.44 60.5255C276.44 31.4704 256.52 11.5205 227.994 11.5205L172.606 11.5054ZM195.521 31.0469H221.914C241.758 31.0469 253.117 41.7554 253.117 60.586C253.117 79.4166 241.758 90.2159 221.763 90.2159H195.521V31.0469ZM318.169 161.666C332.583 161.666 345.894 154.346 351.974 142.669H352.458V160.562H373.633V86.3439C373.633 64.9269 356.632 50.9968 330.39 50.9968C306.13 50.9968 288.161 65.0933 287.541 84.3928H308.096C309.836 75.1817 318.185 69.1921 329.77 69.1921C343.791 69.1921 351.596 75.8018 351.596 87.9471V96.1298L323.085 97.8691C296.45 99.5178 282.111 110.468 282.111 129.617C282.111 148.916 296.934 161.682 318.185 161.682L318.169 161.666ZM324.401 144.016C312.18 144.016 304.391 138.102 304.391 129.057C304.391 119.679 311.877 114.159 326.125 113.282L351.581 111.709V120.133C351.581 134.094 339.843 144.016 324.31 144.016H324.401ZM401.917 201.128C424.196 201.128 434.692 192.461 443.828 166.385L484 52.479H460.768L433.83 140.461H433.346L406.409 52.479H382.466L421.231 160.956L419.174 167.565C415.62 178.682 409.963 182.993 399.875 182.993C398.06 182.993 394.596 182.766 393.174 182.615V200.507C394.505 200.886 400.192 201.052 401.841 201.052L401.917 201.128Z" fill="black"/>
</svg>
