<svg width="50" height="36" viewBox="0 0 50 36" fill="none" xmlns="http://www.w3.org/2000/svg">
<g filter="url(#filter0_d_650_1318)">
<path d="M2 10.6C2 7.23969 2 5.55953 2.65396 4.27606C3.2292 3.14708 4.14708 2.2292 5.27606 1.65396C6.55953 1 8.23969 1 11.6 1H38.4C41.7603 1 43.4405 1 44.7239 1.65396C45.8529 2.2292 46.7708 3.14708 47.346 4.27606C48 5.55953 48 7.23969 48 10.6V23.4C48 26.7603 48 28.4405 47.346 29.7239C46.7708 30.8529 45.8529 31.7708 44.7239 32.346C43.4405 33 41.7603 33 38.4 33H11.6C8.23968 33 6.55953 33 5.27606 32.346C4.14708 31.7708 3.2292 30.8529 2.65396 29.7239C2 28.4405 2 26.7603 2 23.4V10.6Z" fill="white"/>
<path d="M2.5 10.6C2.5 8.91159 2.50039 7.67536 2.58008 6.69993C2.6593 5.73034 2.81438 5.06255 3.09946 4.50305C3.62677 3.46816 4.46816 2.62677 5.50305 2.09946C6.06255 1.81438 6.73034 1.6593 7.69993 1.58008C8.67536 1.50039 9.91159 1.5 11.6 1.5H38.4C40.0884 1.5 41.3246 1.50039 42.3001 1.58008C43.2697 1.6593 43.9374 1.81438 44.4969 2.09946C45.5318 2.62677 46.3732 3.46816 46.9005 4.50305C47.1856 5.06255 47.3407 5.73034 47.4199 6.69993C47.4996 7.67536 47.5 8.91159 47.5 10.6V23.4C47.5 25.0884 47.4996 26.3246 47.4199 27.3001C47.3407 28.2697 47.1856 28.9374 46.9005 29.4969C46.3732 30.5318 45.5318 31.3732 44.4969 31.9005C43.9374 32.1856 43.2697 32.3407 42.3001 32.4199C41.3246 32.4996 40.0884 32.5 38.4 32.5H11.6C9.91159 32.5 8.67536 32.4996 7.69993 32.4199C6.73034 32.3407 6.06255 32.1856 5.50305 31.9005C4.46816 31.3732 3.62677 30.5318 3.09946 29.4969C2.81438 28.9374 2.6593 28.2697 2.58008 27.3001C2.50039 26.3246 2.5 25.0884 2.5 23.4V10.6Z" stroke="#E5E5E7"/>
<path fill-rule="evenodd" clip-rule="evenodd" d="M27.0894 12.4229C26.5834 12.9885 25.7737 13.4346 24.9641 13.3709C24.8629 12.6061 25.2592 11.7935 25.7231 11.2916C26.2291 10.7101 27.1147 10.2958 27.8316 10.264C27.9159 11.0606 27.587 11.8413 27.0894 12.4229ZM27.8231 13.5222C27.1098 13.4834 26.4589 13.7248 25.9332 13.9198C25.5949 14.0453 25.3084 14.1516 25.0905 14.1516C24.8459 14.1516 24.5476 14.0396 24.2127 13.9139C23.7738 13.7492 23.2721 13.561 22.7459 13.57C21.5399 13.5859 20.4182 14.2312 19.8025 15.2589C18.5374 17.3142 19.4736 20.3574 20.6965 22.0303C21.2953 22.8589 22.0121 23.767 22.9567 23.7352C23.3723 23.7204 23.6712 23.6005 23.9806 23.4765C24.3368 23.3338 24.7068 23.1855 25.2845 23.1855C25.8422 23.1855 26.196 23.3299 26.5356 23.4686C26.8586 23.6004 27.1687 23.727 27.6291 23.7192C28.6074 23.7033 29.2231 22.8907 29.8219 22.0622C30.4681 21.173 30.752 20.3052 30.7951 20.1735L30.8002 20.1582C30.8002 20.1582 30.7912 20.1538 30.7771 20.1477C30.5611 20.0543 28.91 19.3403 28.8942 17.4258C28.8783 15.8187 30.2037 15.0045 30.4124 14.8764C30.4251 14.8686 30.4337 14.8633 30.4375 14.8606C29.5942 13.6815 28.2785 13.5541 27.8231 13.5222Z" fill="black"/>
</g>
<defs>
<filter id="filter0_d_650_1318" x="0" y="0" width="50" height="36" filterUnits="userSpaceOnUse" color-interpolation-filters="sRGB">
<feFlood flood-opacity="0" result="BackgroundImageFix"/>
<feColorMatrix in="SourceAlpha" type="matrix" values="0 0 0 0 0 0 0 0 0 0 0 0 0 0 0 0 0 0 127 0" result="hardAlpha"/>
<feOffset dy="1"/>
<feGaussianBlur stdDeviation="1"/>
<feComposite in2="hardAlpha" operator="out"/>
<feColorMatrix type="matrix" values="0 0 0 0 0.0627451 0 0 0 0 0.0941176 0 0 0 0 0.156863 0 0 0 0.04 0"/>
<feBlend mode="normal" in2="BackgroundImageFix" result="effect1_dropShadow_650_1318"/>
<feBlend mode="normal" in="SourceGraphic" in2="effect1_dropShadow_650_1318" result="shape"/>
</filter>
</defs>
</svg>
