<svg xmlns="http://www.w3.org/2000/svg" viewBox="0 0 17.5 20"><defs><style>.cls-1{fill:#fff;}</style></defs><g id="Layer_2" data-name="Layer 2"><g id="Layer_1-2" data-name="Layer 1"><path class="cls-1" d="M10,1.25V2a6.25,6.25,0,0,1,5,6.12v.74a7.53,7.53,0,0,0,1.89,5l.29.33a1.25,1.25,0,0,1-.93,2.08h-15a1.25,1.25,0,0,1-.93-2.08l.29-.33a7.48,7.48,0,0,0,1.89-5V8.12A6.21,6.21,0,0,1,7.5,2V1.25a1.25,1.25,0,0,1,2.5,0ZM8.75,20A2.51,2.51,0,0,1,7,19.27a2.56,2.56,0,0,1-.73-1.77h5A2.49,2.49,0,0,1,8.75,20Z"/></g></g></svg>