<svg xmlns="http://www.w3.org/2000/svg" viewBox="0 0 30 40"><defs><style>.cls-1{fill:#fc0;}</style></defs><g id="Layer_2" data-name="Layer 2"><g id="Layer_1-2" data-name="Layer 1"><path class="cls-1" d="M29.78,13.5a1.86,1.86,0,0,0-1.66-1H15.89l4-9.93A1.88,1.88,0,0,0,19.67.82,2,2,0,0,0,18.12,0H4.37A1.87,1.87,0,0,0,2.52,1.63L0,20.38a1.86,1.86,0,0,0,.44,1.48,1.88,1.88,0,0,0,1.41.64H13.3L10,37.66a1.87,1.87,0,0,0,1.09,2.12,1.23,1.23,0,0,0,.74.22,1.86,1.86,0,0,0,1.55-.82L29.67,15.43A1.86,1.86,0,0,0,29.78,13.5Z"/></g></g></svg>