<svg width="32" height="32" viewBox="0 0 32 32" fill="none" xmlns="http://www.w3.org/2000/svg">
<rect width="32" height="32" rx="16" fill="#181B1F"/>
<g clip-path="url(#clip0_26_2086)">
<path d="M16.75 10.0412C20.125 10.414 22.75 13.2752 22.75 16.75V23.5H9.25V16.75C9.25 13.2752 11.875 10.414 15.25 10.0412V7.75H16.75V10.0412ZM21.25 22V16.75C21.25 15.3576 20.6969 14.0223 19.7123 13.0377C18.7277 12.0531 17.3924 11.5 16 11.5C14.6076 11.5 13.2723 12.0531 12.2877 13.0377C11.3031 14.0223 10.75 15.3576 10.75 16.75V22H21.25ZM16 20.5C15.0054 20.5 14.0516 20.1049 13.3483 19.4017C12.6451 18.6984 12.25 17.7446 12.25 16.75C12.25 15.7554 12.6451 14.8016 13.3483 14.0983C14.0516 13.3951 15.0054 13 16 13C16.9946 13 17.9484 13.3951 18.6517 14.0983C19.3549 14.8016 19.75 15.7554 19.75 16.75C19.75 17.7446 19.3549 18.6984 18.6517 19.4017C17.9484 20.1049 16.9946 20.5 16 20.5ZM16 19C16.5967 19 17.169 18.7629 17.591 18.341C18.0129 17.919 18.25 17.3467 18.25 16.75C18.25 16.1533 18.0129 15.581 17.591 15.159C17.169 14.7371 16.5967 14.5 16 14.5C15.4033 14.5 14.831 14.7371 14.409 15.159C13.9871 15.581 13.75 16.1533 13.75 16.75C13.75 17.3467 13.9871 17.919 14.409 18.341C14.831 18.7629 15.4033 19 16 19ZM16 17.5C15.8011 17.5 15.6103 17.421 15.4697 17.2803C15.329 17.1397 15.25 16.9489 15.25 16.75C15.25 16.5511 15.329 16.3603 15.4697 16.2197C15.6103 16.079 15.8011 16 16 16C16.1989 16 16.3897 16.079 16.5303 16.2197C16.671 16.3603 16.75 16.5511 16.75 16.75C16.75 16.9489 16.671 17.1397 16.5303 17.2803C16.3897 17.421 16.1989 17.5 16 17.5Z" fill="white"/>
</g>
<defs>
<clipPath id="clip0_26_2086">
<rect width="18" height="18" fill="white" transform="translate(7 7)"/>
</clipPath>
</defs>
</svg>
