<svg width="40" height="40" viewBox="0 0 40 40" fill="none" xmlns="http://www.w3.org/2000/svg">
<rect width="40" height="40" rx="12" fill="#BE87FF"/>
<path d="M25.8385 10H14.1615C13.6343 9.99998 13.1795 9.99997 12.805 10.0306C12.4096 10.0629 12.0164 10.1342 11.638 10.327C11.0735 10.6146 10.6146 11.0735 10.327 11.638C10.1342 12.0164 10.0629 12.4096 10.0306 12.805C9.99997 13.1795 9.99998 13.6343 10 14.1614V19.8912C10 20.3244 10 20.541 10.0893 20.7379C10.1617 20.8973 10.3077 21.0673 10.4544 21.1628C10.6356 21.2808 10.8226 21.3093 11.1965 21.3662C11.793 21.4571 12.397 21.5 13 21.5C16.3056 21.5 19.2993 20.164 21.4706 18H20C19.4477 18 19 17.5523 19 17C19 16.4477 19.4477 16 20 16H24C24.5523 16 25 16.4477 25 17V21C25 21.5523 24.5523 22 24 22C23.4477 22 23 21.5523 23 21V19.2978C20.4598 21.8899 16.918 23.5 13 23.5C12.652 23.5 12.3068 23.4872 11.965 23.4622C11.2029 23.4065 10.8219 23.3786 10.5921 23.4813C10.3724 23.5794 10.2331 23.7089 10.1192 23.9209C10 24.1426 10 24.4833 10 25.1647V25.8385C9.99998 26.3657 9.99997 26.8205 10.0306 27.195C10.0629 27.5904 10.1342 27.9836 10.327 28.362C10.6146 28.9265 11.0735 29.3854 11.638 29.673C12.0164 29.8658 12.4096 29.9371 12.805 29.9694C13.1795 30 13.6343 30 14.1614 30H25.8386C26.3657 30 26.8205 30 27.195 29.9694C27.5904 29.9371 27.9836 29.8658 28.362 29.673C28.9265 29.3854 29.3854 28.9265 29.673 28.362C29.8658 27.9836 29.9371 27.5904 29.9694 27.195C30 26.8205 30 26.3657 30 25.8386V14.1614C30 13.6343 30 13.1795 29.9694 12.805C29.9371 12.4096 29.8658 12.0164 29.673 11.638C29.3854 11.0735 28.9265 10.6146 28.362 10.327C27.9836 10.1342 27.5904 10.0629 27.195 10.0306C26.8205 9.99997 26.3657 9.99998 25.8385 10Z" fill="#FCFDFE"/>
</svg>
