<svg xmlns="http://www.w3.org/2000/svg" viewBox="0 0 19.96 17.5"><defs><style>.cls-1{fill:#fff;}</style></defs><g id="Layer_2" data-name="Layer 2"><g id="Layer_1-2" data-name="Layer 1"><path class="cls-1" d="M10,0C4.44,0,0,3.64,0,8.13a7.17,7.17,0,0,0,2.23,5.1A9.93,9.93,0,0,1,.09,17a.29.29,0,0,0-.06.34.3.3,0,0,0,.28.19,9,9,0,0,0,5.49-2,12,12,0,0,0,4.2.76c5.52,0,10-3.64,10-8.09S15.49,0,10,0Zm-5,9.38A1.24,1.24,0,0,1,3.68,8.16,1.27,1.27,0,0,1,4.93,6.91,1.25,1.25,0,0,1,6.18,8.16,1.2,1.2,0,0,1,4.93,9.38Zm5,0A1.21,1.21,0,0,1,8.75,8.16,1.26,1.26,0,0,1,10,6.91a1.24,1.24,0,0,1,1.21,1.25A1.19,1.19,0,0,1,10,9.38Zm5,0a1.24,1.24,0,0,1-1.25-1.22,1.27,1.27,0,0,1,1.25-1.25,1.25,1.25,0,0,1,1.25,1.25A1.2,1.2,0,0,1,14.93,9.38Z"/></g></g></svg>