<svg width="15" height="15" viewBox="0 0 15 15" fill="none" xmlns="http://www.w3.org/2000/svg">
<path d="M1.61008 10.4438C0.797377 11.2565 0.795904 12.5742 1.61008 13.3884C2.42425 14.2025 3.74195 14.2011 4.55465 13.3884L7.4986 10.4444L10.4441 13.3899C11.2583 14.2041 12.576 14.2026 13.3887 13.3899C14.2014 12.5772 14.2029 11.2595 13.3887 10.4453L10.4432 7.49984L13.3884 4.55465C14.2011 3.74195 14.2025 2.42425 13.3884 1.61008C12.5742 0.795905 11.2565 0.797377 10.4438 1.61008L7.4986 4.55527L4.55496 1.61163C3.74079 0.797459 2.42309 0.798931 1.61039 1.61163C0.797688 2.42433 0.796216 3.74203 1.61039 4.5562L4.55403 7.49984L1.61008 10.4438Z" fill="#5C5F62" stroke="white" stroke-width="2"/>
</svg>
