<svg width="20" height="20" viewBox="0 0 20 20" fill="none" xmlns="http://www.w3.org/2000/svg">
<g clip-path="url(#clip0_26_22399)">
<path d="M5.90985 17.3183L6.28894 16.5744L5.90985 17.3183ZM5.18149 16.59L5.92548 16.2109L5.92548 16.2109L5.18149 16.59ZM14.8182 16.59L14.0742 16.2109L14.0742 16.2109L14.8182 16.59ZM14.0898 17.3183L13.7107 16.5744H13.7107L14.0898 17.3183ZM4.1665 4.99833C3.70535 4.99833 3.3315 5.37217 3.3315 5.83333C3.3315 6.29449 3.70535 6.66833 4.1665 6.66833V4.99833ZM15.8332 6.66833C16.2943 6.66833 16.6682 6.29449 16.6682 5.83333C16.6682 5.37217 16.2943 4.99833 15.8332 4.99833V6.66833ZM14.1648 5.83333V14.8333H15.8348V5.83333H14.1648ZM12.3332 16.665H7.6665V18.335H12.3332V16.665ZM4.16484 5.83333V14.8333H5.83484V5.83333H4.16484ZM7.6665 16.665C7.18602 16.665 6.87587 16.6644 6.63984 16.6451C6.41355 16.6266 6.32986 16.5952 6.28894 16.5744L5.53077 18.0623C5.84636 18.2231 6.17429 18.2826 6.50384 18.3095C6.82365 18.3356 7.21357 18.335 7.6665 18.335V16.665ZM4.16484 14.8333C4.16484 15.2863 4.16419 15.6762 4.19032 15.996C4.21724 16.3256 4.2767 16.6535 4.4375 16.9691L5.92548 16.2109C5.90463 16.17 5.87326 16.0863 5.85477 15.86C5.83549 15.624 5.83484 15.3138 5.83484 14.8333H4.16484ZM6.28894 16.5744C6.13245 16.4946 6.00522 16.3674 5.92548 16.2109L4.4375 16.9691C4.67735 17.4398 5.06005 17.8225 5.53077 18.0623L6.28894 16.5744ZM14.1648 14.8333C14.1648 15.3138 14.1642 15.624 14.1449 15.86C14.1264 16.0863 14.095 16.17 14.0742 16.2109L15.5622 16.9691C15.723 16.6535 15.7824 16.3256 15.8094 15.996C15.8355 15.6762 15.8348 15.2863 15.8348 14.8333H14.1648ZM12.3332 18.335C12.7861 18.335 13.176 18.3356 13.4958 18.3095C13.8254 18.2826 14.1533 18.2231 14.4689 18.0623L13.7107 16.5744C13.6698 16.5952 13.5861 16.6266 13.3598 16.6451C13.1238 16.6644 12.8137 16.665 12.3332 16.665V18.335ZM14.0742 16.2109C13.9945 16.3674 13.8672 16.4946 13.7107 16.5744L14.4689 18.0623C14.9396 17.8225 15.3223 17.4398 15.5622 16.9691L14.0742 16.2109ZM4.1665 6.66833H4.99984V4.99833H4.1665V6.66833ZM4.99984 6.66833H14.9998V4.99833H4.99984V6.66833ZM14.9998 6.66833H15.8332V4.99833H14.9998V6.66833ZM7.91817 5.16667C7.91817 4.22392 8.77816 3.335 9.99984 3.335V1.665C7.99985 1.665 6.24817 3.1639 6.24817 5.16667H7.91817ZM9.99984 3.335C11.2215 3.335 12.0815 4.22392 12.0815 5.16667H13.7515C13.7515 3.1639 11.9998 1.665 9.99984 1.665V3.335ZM6.24817 5.16667V5.83333H7.91817V5.16667H6.24817ZM12.0815 5.16667V5.83333H13.7515V5.16667H12.0815Z" fill="#858C95"/>
</g>
<defs>
<clipPath id="clip0_26_22399">
<path d="M0 6C0 2.68629 2.68629 0 6 0H14C17.3137 0 20 2.68629 20 6V14C20 17.3137 17.3137 20 14 20H6C2.68629 20 0 17.3137 0 14V6Z" fill="white"/>
</clipPath>
</defs>
</svg>
