<svg width="18" height="16" viewBox="0 0 18 16" fill="none" xmlns="http://www.w3.org/2000/svg">
                      <path d="M1.42442 7.02352L2.33303 7.44116L2.33303 7.44116L1.42442 7.02352ZM16.576 8.97645L15.6673 8.5588L16.576 8.97645ZM1.42442 8.97645L0.515808 9.39409H0.515808L1.42442 8.97645ZM16.576 7.02351L15.6673 7.44116L16.576 7.02351ZM14.0635 2.65828C13.5998 2.35831 12.9807 2.49105 12.6807 2.95477C12.3808 3.41849 12.5135 4.03758 12.9772 4.33756L14.0635 2.65828ZM5.05758 11.6845C4.5922 11.3872 3.97385 11.5234 3.67647 11.9887C3.37909 12.4541 3.51528 13.0725 3.98067 13.3699L5.05758 11.6845ZM1.53403 11.1015C1.86577 11.543 2.49265 11.632 2.9342 11.3003C3.37575 10.9685 3.46476 10.3417 3.13302 9.90012L1.53403 11.1015ZM10.4679 3.31336C11.0092 3.42322 11.537 3.07352 11.6469 2.53228C11.7567 1.99103 11.407 1.4632 10.8658 1.35333L10.4679 3.31336ZM16.374 2.04042C16.7645 1.6499 16.7645 1.01673 16.374 0.626206C15.9834 0.235682 15.3503 0.235682 14.9597 0.626206L16.374 2.04042ZM1.62641 13.9595C1.23588 14.3501 1.23588 14.9832 1.62641 15.3738C2.01693 15.7643 2.6501 15.7643 3.04062 15.3738L1.62641 13.9595ZM9.00019 1.16665C5.23375 1.16665 1.99048 3.39762 0.515808 6.60587L2.33303 7.44116C3.49354 4.91639 6.04357 3.16665 9.00019 3.16665V1.16665ZM9.00019 14.8333C12.7666 14.8333 16.0099 12.6023 17.4846 9.39409L15.6673 8.5588C14.5068 11.0836 11.9568 12.8333 9.00019 12.8333V14.8333ZM0.515808 6.60587C0.109314 7.49023 0.109314 8.50973 0.515808 9.39409L2.33303 8.55881C2.17024 8.20464 2.17024 7.79532 2.33303 7.44116L0.515808 6.60587ZM15.6673 7.44116C15.8301 7.79532 15.8301 8.20464 15.6673 8.5588L17.4846 9.39409C17.8911 8.50973 17.8911 7.49023 17.4846 6.60587L15.6673 7.44116ZM17.4846 6.60587C16.7401 4.98624 15.5465 3.61759 14.0635 2.65828L12.9772 4.33756C14.144 5.09234 15.0828 6.16938 15.6673 7.44116L17.4846 6.60587ZM3.98067 13.3699C5.43066 14.2964 7.15425 14.8333 9.00019 14.8333V12.8333C7.54712 12.8333 6.19557 12.4117 5.05758 11.6845L3.98067 13.3699ZM0.515808 9.39409C0.794957 10.0014 1.13721 10.5733 1.53403 11.1015L3.13302 9.90012C2.82092 9.48472 2.55209 9.03538 2.33303 8.55881L0.515808 9.39409ZM10.8658 1.35333C10.2622 1.2308 9.63815 1.16665 9.00019 1.16665V3.16665C9.50378 3.16665 9.99451 3.21726 10.4679 3.31336L10.8658 1.35333ZM6.52531 10.4749C7.89215 11.8417 10.1082 11.8417 11.4751 10.4749L10.0608 9.06064C9.47506 9.64643 8.52531 9.64643 7.93953 9.06064L6.52531 10.4749ZM11.4751 10.4749C12.8419 9.10802 12.8419 6.89194 11.4751 5.52511L10.0608 6.93932C10.6466 7.52511 10.6466 8.47485 10.0608 9.06064L11.4751 10.4749ZM14.9597 0.626206L1.62641 13.9595L3.04062 15.3738L16.374 2.04042L14.9597 0.626206Z" fill="#858C95"/>
                    </svg>
