<svg width="19" height="19" viewBox="0 0 19 19" fill="none" xmlns="http://www.w3.org/2000/svg">
<path fill-rule="evenodd" clip-rule="evenodd" d="M9.71011 0C4.56065 0 0.417847 4.11672 0.417847 9.23377C0.417847 13.312 3.08937 16.7747 6.76756 18.0058C7.23217 18.0828 7.38704 17.8135 7.38704 17.5442C7.38704 17.3133 7.38704 16.7362 7.38704 15.9667C4.79295 16.5438 4.2509 14.7356 4.2509 14.7356C3.82501 13.6583 3.20553 13.389 3.20553 13.389C2.35373 12.8119 3.28296 12.8119 3.28296 12.8119C4.21219 12.8888 4.71552 13.7737 4.71552 13.7737C5.52859 15.1972 6.88371 14.774 7.42576 14.5432C7.5032 13.9276 7.7355 13.5429 8.00653 13.312C5.95449 13.0812 3.78629 12.2732 3.78629 8.7336C3.78629 7.73328 4.13475 6.88685 4.75424 6.27127C4.6768 6.04042 4.32834 5.11704 4.83167 3.80893C4.83167 3.80893 5.60603 3.57808 7.38704 4.77078C8.12268 4.57841 8.93575 4.46299 9.71011 4.46299C10.4845 4.46299 11.2975 4.57841 12.0332 4.77078C13.8142 3.57808 14.5885 3.80893 14.5885 3.80893C15.0919 5.07857 14.7821 6.00195 14.666 6.27127C15.2467 6.92532 15.6339 7.73328 15.6339 8.7336C15.6339 12.2732 13.4657 13.0427 11.375 13.2735C11.7234 13.5429 11.9945 14.12 11.9945 14.9664C11.9945 16.1976 11.9945 17.1979 11.9945 17.5057C11.9945 17.7365 12.1493 18.0443 12.6527 17.9674C16.3308 16.7747 19.0024 13.312 19.0024 9.23377C19.0024 4.11672 14.8596 0 9.71011 0Z" fill="#27272A"/>
</svg>
