<svg width="75" height="75" viewBox="0 0 75 75" fill="none" xmlns="http://www.w3.org/2000/svg">
<circle opacity="0.2" cx="37.5" cy="37.5" r="37.5" fill="#7C2AE8" fill-opacity="0.1"/>
<path d="M37.9886 23.2728C29.2698 15.647 18.184 22.3472 18.0023 31.4305C17.9559 33.7454 18.6242 36.0003 19.9543 38.0792H28.5758L30.1093 35.5233C30.5546 34.7812 31.6322 34.7573 32.1027 35.4971L35.3381 40.5813L40.0544 30.625C40.4657 29.7562 41.6915 29.7286 42.1451 30.5711L46.1879 38.0792H56.0229C63.3085 26.6925 48.9098 13.7208 37.9886 23.2728Z" fill="#7C2AE8"/>
<path d="M44.4563 39.8065L41.1803 33.7225L36.5478 43.5022C36.1537 44.3342 34.9945 44.4065 34.5002 43.6297L31.1434 38.3549L30.2441 39.8538C30.0323 40.2067 29.6509 40.4227 29.2393 40.4227H21.808C22.0409 40.6665 20.7994 39.4274 37.1621 55.7054C37.6191 56.1601 38.3579 56.1602 38.815 55.7054C54.9259 39.6779 53.9366 40.666 54.1691 40.4227H45.4881C45.0569 40.4227 44.6607 40.186 44.4563 39.8065Z" fill="#7C2AE8"/>
</svg>
