<svg width="21" height="20" viewBox="0 0 21 20" fill="none" xmlns="http://www.w3.org/2000/svg">
<path d="M10.3132 1.7394C12.9069 1.7394 13.214 1.74906 14.2387 1.79548C14.8547 1.80297 15.4649 1.91538 16.0427 2.12783C16.4618 2.28841 16.8423 2.5344 17.1599 2.84997C17.4775 3.16554 17.725 3.54369 17.8866 3.96008C18.1004 4.53427 18.2135 5.14063 18.2211 5.75281C18.2673 6.77098 18.2775 7.07621 18.2775 9.65359C18.2775 12.231 18.2678 12.5362 18.2211 13.5544C18.2135 14.1666 18.1004 14.7729 17.8866 15.3471C17.725 15.7635 17.4775 16.1416 17.1599 16.4572C16.8423 16.7728 16.4618 17.0188 16.0427 17.1794C15.4649 17.3918 14.8547 17.5042 14.2387 17.5117C13.2145 17.5577 12.9073 17.5678 10.3132 17.5678C7.71899 17.5678 7.41183 17.5581 6.38767 17.5117C5.77161 17.5042 5.16141 17.3918 4.58359 17.1794C4.16456 17.0188 3.78401 16.7728 3.46644 16.4572C3.14887 16.1416 2.90132 15.7635 2.73972 15.3471C2.52593 14.7729 2.41281 14.1666 2.40527 13.5544C2.35901 12.5362 2.34884 12.231 2.34884 9.65359C2.34884 7.07621 2.35855 6.77098 2.40527 5.75281C2.41281 5.14063 2.52593 4.53427 2.73972 3.96008C2.90132 3.54369 3.14887 3.16554 3.46644 2.84997C3.78401 2.5344 4.16456 2.28841 4.58359 2.12783C5.16141 1.91538 5.77161 1.80297 6.38767 1.79548C7.4123 1.74952 7.71945 1.7394 10.3132 1.7394ZM10.3132 0C7.67643 0 7.3443 0.0110321 6.3081 0.0579188C5.50184 0.0738547 4.70413 0.225553 3.94892 0.50656C3.30107 0.749114 2.71428 1.12922 2.22949 1.62035C1.7348 2.10226 1.35196 2.68568 1.10772 3.32987C0.824933 4.08033 0.672274 4.87302 0.656238 5.6742C0.609979 6.70295 0.598877 7.033 0.598877 9.65313C0.598877 12.2733 0.609979 12.6033 0.657163 13.633C0.6732 14.4342 0.825859 15.2269 1.10865 15.9773C1.35262 16.6214 1.73514 17.2048 2.22949 17.6868C2.71454 18.1781 3.30166 18.5582 3.94984 18.8006C4.70506 19.0816 5.50277 19.2333 6.30903 19.2493C7.34522 19.2952 7.67597 19.3072 10.3141 19.3072C12.9522 19.3072 13.283 19.2962 14.3192 19.2493C15.1254 19.2333 15.9231 19.0816 16.6783 18.8006C17.3235 18.5521 17.9093 18.1726 18.3983 17.6863C18.8874 17.2 19.269 16.6176 19.5186 15.9764C19.8014 15.2259 19.9541 14.4333 19.9701 13.6321C20.0164 12.6033 20.0275 12.2733 20.0275 9.65313C20.0275 7.033 20.0164 6.70295 19.9692 5.67329C19.9531 4.8721 19.8005 4.07941 19.5177 3.32895C19.2737 2.68485 18.8912 2.10143 18.3968 1.61943C17.9118 1.12819 17.3247 0.748076 16.6765 0.50564C15.9213 0.224633 15.1236 0.0729354 14.3173 0.0569995C13.282 0.0110322 12.9499 0 10.3132 0Z" fill="#27272A"/>
<path d="M10.3115 4.69629C9.32488 4.69629 8.3604 4.98702 7.54005 5.53171C6.71969 6.07641 6.0803 6.8506 5.70273 7.7564C5.32516 8.66219 5.22637 9.6589 5.41885 10.6205C5.61134 11.5821 6.08645 12.4653 6.7841 13.1586C7.48176 13.8519 8.37063 14.324 9.33831 14.5153C10.306 14.7065 11.309 14.6084 12.2205 14.2332C13.1321 13.858 13.9112 13.2226 14.4593 12.4074C15.0075 11.5922 15.3 10.6338 15.3 9.6534C15.3 8.3387 14.7745 7.07783 13.8389 6.14819C12.9034 5.21856 11.6346 4.69629 10.3115 4.69629ZM10.3115 12.8711C9.67108 12.8711 9.04503 12.6824 8.51253 12.3288C7.98003 11.9753 7.56499 11.4727 7.31991 10.8848C7.07482 10.2968 7.0107 9.64983 7.13564 9.02566C7.26058 8.40148 7.56898 7.82814 8.02184 7.37814C8.4747 6.92813 9.05167 6.62168 9.6798 6.49752C10.3079 6.37336 10.959 6.43708 11.5507 6.68063C12.1424 6.92417 12.6481 7.33659 13.0039 7.86574C13.3597 8.39489 13.5496 9.017 13.5496 9.6534C13.5496 10.5068 13.2085 11.3252 12.6012 11.9287C11.9939 12.5321 11.1703 12.8711 10.3115 12.8711Z" fill="#27272A"/>
<path d="M15.4985 5.65855C16.1423 5.65855 16.6642 5.13993 16.6642 4.50017C16.6642 3.86042 16.1423 3.3418 15.4985 3.3418C14.8547 3.3418 14.3328 3.86042 14.3328 4.50017C14.3328 5.13993 14.8547 5.65855 15.4985 5.65855Z" fill="#27272A"/>
</svg>
