<svg width="75" height="75" viewBox="0 0 75 75" fill="none" xmlns="http://www.w3.org/2000/svg">
<circle opacity="0.2" cx="37.5" cy="37.5" r="37.5" fill="#7C2AE8" fill-opacity="0.1"/>
<g clip-path="url(#clip0_7_31264)">
<path d="M25.5 26.75H28V29.25H25.5V26.75Z" fill="#7C2AE8"/>
<path d="M25.5 36.75H28V39.25H25.5V36.75Z" fill="#7C2AE8"/>
<path d="M24.25 34.25H29.25C29.35 34.25 29.4375 34.2625 29.525 34.2875C30.1 33.15 30.875 32.1 31.8 31.1749C32.2125 30.7624 32.6375 30.3999 33.0875 30.0624C33.2625 29.5874 33.7125 29.2499 34.25 29.2499H34.2875C38.1125 26.9874 42.8875 26.9374 46.75 29.1124V21.75C46.75 19.6875 45.0625 18 43 18H21.75C19.6875 18 18 19.6875 18 21.75V54.25C18 56.3125 19.6875 58 21.75 58H43C44.8375 58 46.375 56.6625 46.6875 54.9L45.9375 54.15C45.3 53.5125 44.85 52.725 44.6375 51.8625C43.3625 52.2875 42.025 52.5125 40.6375 52.5125C39.1501 52.5125 37.6875 52.25 36.325 51.75H34.25C33.5625 51.75 33 51.1875 33 50.5C33 50.3125 33.0375 50.15 33.1125 49.9875C32.65 49.65 32.2125 49.2625 31.8 48.85C31.325 48.375 30.8875 47.8625 30.5 47.325V50.5C30.5 51.1875 29.9375 51.75 29.25 51.75H24.25C23.5625 51.75 23 51.1875 23 50.5V45.5C23 44.8125 23.5625 44.25 24.25 44.25H28.8625C28.5875 43.4375 28.375 42.6 28.2625 41.75H24.25C23.5625 41.75 23 41.1875 23 40.5V35.5C23 34.8125 23.5625 34.25 24.25 34.25ZM34.25 24.25H40.5C41.1875 24.25 41.75 24.8125 41.75 25.5C41.75 26.1875 41.1875 26.75 40.5 26.75H34.25C33.5625 26.75 33 26.1875 33 25.5C33 24.8125 33.5625 24.25 34.25 24.25ZM23 25.5C23 24.8125 23.5625 24.25 24.25 24.25H29.25C29.9375 24.25 30.5 24.8125 30.5 25.5V30.5C30.5 31.1875 29.9375 31.75 29.25 31.75H24.25C23.5625 31.75 23 31.1875 23 30.5V25.5Z" fill="#7C2AE8"/>
<path d="M25.5 46.75H28V49.25H25.5V46.75Z" fill="#7C2AE8"/>
<path d="M47.7125 32.9375C43.8125 29.0375 37.4625 29.0375 33.5625 32.9375C29.6625 36.8375 29.6625 43.1875 33.5625 47.0875C35.4625 48.975 37.9625 50.0125 40.6375 50.0125C43.3125 50.0125 45.825 48.975 47.7125 47.0875C49.6 45.2 50.6375 42.6875 50.6375 40.0125C50.6375 37.3375 49.6 34.8375 47.7125 32.9375ZM44.6875 38.725L40.65 43.0125C40.425 43.2625 40.1 43.4 39.7625 43.4H39.7375C39.4125 43.4 39.1 43.275 38.8625 43.0375L36.625 40.8C36.1375 40.3125 36.1375 39.525 36.625 39.0375C37.1125 38.55 37.9 38.55 38.3875 39.0375L39.7125 40.3625L42.8625 37.0125C43.3375 36.5125 44.125 36.4875 44.625 36.9625C45.1375 37.4375 45.1626 38.225 44.6875 38.725Z" fill="#7C2AE8"/>
<path d="M49.4776 50.1026C49.1577 50.1026 48.838 49.9805 48.5939 49.7364L45.9419 47.0844C45.4536 46.5961 45.4536 45.8051 45.9419 45.3167C46.4301 44.8284 47.2211 44.8285 47.7095 45.3167L50.3615 47.9687C50.8497 48.457 50.8497 49.248 50.3615 49.7364C50.1174 49.9805 49.7974 50.1026 49.4776 50.1026Z" fill="#7C2AE8"/>
<path d="M56.8897 50.9614L53.0127 47.085C52.0386 46.1096 50.4517 46.1096 49.4776 47.085L47.7099 48.8526C46.7352 49.8274 46.7352 51.413 47.7099 52.3877L51.5863 56.2647C52.3176 56.996 53.2776 57.3615 54.2377 57.3615C55.1984 57.3615 56.1584 56.9959 56.8897 56.2647C58.3521 54.8024 58.3521 52.4232 56.8897 50.9614Z" fill="#7C2AE8"/>
</g>
<defs>
<clipPath id="clip0_7_31264">
<rect width="40" height="40" fill="white" transform="translate(18 18)"/>
</clipPath>
</defs>
</svg>
