<svg width="32" height="32" viewBox="0 0 32 32" fill="none" xmlns="http://www.w3.org/2000/svg">
<path fill-rule="evenodd" clip-rule="evenodd" d="M8.29065 4.1227C8 4.69313 8 5.43987 8 6.93334V25.0667C8 26.5601 8 27.3069 8.29065 27.8773C8.54631 28.3791 8.95426 28.787 9.45603 29.0427C10.0265 29.3333 10.7732 29.3333 12.2667 29.3333H19.7333C21.2268 29.3333 21.9735 29.3333 22.544 29.0427C23.0457 28.787 23.4537 28.3791 23.7094 27.8773C24 27.3069 24 26.5601 24 25.0667V6.93334C24 5.43987 24 4.69313 23.7094 4.1227C23.4537 3.62093 23.0457 3.21298 22.544 2.95732C21.9735 2.66667 21.2268 2.66667 19.7333 2.66667H12.2667C10.7732 2.66667 10.0265 2.66667 9.45603 2.95732C8.95426 3.21298 8.54631 3.62093 8.29065 4.1227ZM14.6667 5.33334C13.9303 5.33334 13.3333 5.93029 13.3333 6.66667C13.3333 7.40305 13.9303 8.00001 14.6667 8.00001H17.3333C18.0697 8.00001 18.6667 7.40305 18.6667 6.66667C18.6667 5.93029 18.0697 5.33334 17.3333 5.33334H14.6667Z" fill="#7C2AE8"/>
</svg>
