<svg width="75" height="75" viewBox="0 0 75 75" fill="none" xmlns="http://www.w3.org/2000/svg">
<circle opacity="0.2" cx="37.5" cy="37.5" r="37.5" fill="#7C2AE8" fill-opacity="0.1"/>
<path d="M38.6153 28.1777H28.423C27.5726 28.1777 26.8845 28.8666 26.8845 29.7162C26.8845 30.5658 27.5726 31.2547 28.423 31.2547H38.6153C39.4657 31.2547 40.1538 30.5658 40.1538 29.7162C40.1538 28.8666 39.4657 28.1777 38.6153 28.1777Z" fill="#7C2AE8"/>
<path d="M34.5768 35.2766H28.423C27.5726 35.2766 26.8845 35.9655 26.8845 36.8151C26.8845 37.6647 27.5726 38.3535 28.423 38.3535H34.5768C35.4272 38.3535 36.1153 37.6647 36.1153 36.8151C36.1153 35.9655 35.4272 35.2766 34.5768 35.2766Z" fill="#7C2AE8"/>
<path d="M34.5768 42.3755H28.423C27.5726 42.3755 26.8845 43.0643 26.8845 43.914C26.8845 44.7636 27.5726 45.4524 28.423 45.4524H34.5768C35.4272 45.4524 36.1153 44.7636 36.1153 43.914C36.1153 43.0643 35.4272 42.3755 34.5768 42.3755Z" fill="#7C2AE8"/>
<path d="M42.6462 19.5389H30.2454C28.6348 19.5389 27.1234 20.1632 25.9891 21.2975L21.3572 25.9287C20.2394 27.0457 19.5994 28.5917 19.5994 30.17V48.0779C19.5994 51.3944 22.2977 54.0927 25.615 54.0927H42.6034C46.1266 58.3095 53.1469 56.6349 54.2651 51.1285C54.5075 49.9585 54.3995 37.6291 54.3995 37.7849H54.8638C55.7142 37.7849 56.4023 37.096 56.4023 36.2464C56.4023 35.3968 55.7142 34.708 54.8638 34.708H48.6604V25.5546C48.6604 22.2373 45.962 19.5389 42.6462 19.5389ZM40.5654 34.708C39.7151 34.708 39.027 35.3968 39.027 36.2464C39.027 37.096 39.7151 37.7849 40.5654 37.7849H41.0297C41.0227 38.6877 40.9805 50.0057 41.1299 50.8982C41.1363 50.9369 41.1337 50.9775 41.1408 51.0158H25.615C23.9939 51.0158 22.6763 49.6982 22.6763 48.0779V30.17C22.6763 29.4015 22.9888 28.6488 23.5327 28.1041L28.1646 23.473C28.7099 22.9284 29.4672 22.6159 30.2454 22.6159H42.6462C44.2658 22.6159 45.5834 23.9342 45.5834 25.5546V34.708H40.5654ZM51.3226 37.7856V42.8164H44.1066V37.7856C44.3173 37.7856 51.4806 37.7856 51.3226 37.7856Z" fill="#7C2AE8"/>
</svg>
