<svg width="50" height="36" viewBox="0 0 50 36" fill="none" xmlns="http://www.w3.org/2000/svg">
<g filter="url(#filter0_d_650_1289)">
<path d="M2 10.6C2 7.23969 2 5.55953 2.65396 4.27606C3.2292 3.14708 4.14708 2.2292 5.27606 1.65396C6.55953 1 8.23969 1 11.6 1H38.4C41.7603 1 43.4405 1 44.7239 1.65396C45.8529 2.2292 46.7708 3.14708 47.346 4.27606C48 5.55953 48 7.23969 48 10.6V23.4C48 26.7603 48 28.4405 47.346 29.7239C46.7708 30.8529 45.8529 31.7708 44.7239 32.346C43.4405 33 41.7603 33 38.4 33H11.6C8.23968 33 6.55953 33 5.27606 32.346C4.14708 31.7708 3.2292 30.8529 2.65396 29.7239C2 28.4405 2 26.7603 2 23.4V10.6Z" fill="white"/>
<path d="M2.5 10.6C2.5 8.91159 2.50039 7.67536 2.58008 6.69993C2.6593 5.73034 2.81438 5.06255 3.09946 4.50305C3.62677 3.46816 4.46816 2.62677 5.50305 2.09946C6.06255 1.81438 6.73034 1.6593 7.69993 1.58008C8.67536 1.50039 9.91159 1.5 11.6 1.5H38.4C40.0884 1.5 41.3246 1.50039 42.3001 1.58008C43.2697 1.6593 43.9374 1.81438 44.4969 2.09946C45.5318 2.62677 46.3732 3.46816 46.9005 4.50305C47.1856 5.06255 47.3407 5.73034 47.4199 6.69993C47.4996 7.67536 47.5 8.91159 47.5 10.6V23.4C47.5 25.0884 47.4996 26.3246 47.4199 27.3001C47.3407 28.2697 47.1856 28.9374 46.9005 29.4969C46.3732 30.5318 45.5318 31.3732 44.4969 31.9005C43.9374 32.1856 43.2697 32.3407 42.3001 32.4199C41.3246 32.4996 40.0884 32.5 38.4 32.5H11.6C9.91159 32.5 8.67536 32.4996 7.69993 32.4199C6.73034 32.3407 6.06255 32.1856 5.50305 31.9005C4.46816 31.3732 3.62677 30.5318 3.09946 29.4969C2.81438 28.9374 2.6593 28.2697 2.58008 27.3001C2.50039 26.3246 2.5 25.0884 2.5 23.4V10.6Z" stroke="#E5E5E7"/>
<path d="M27.6314 12.2725H22.3699V21.7274H27.6314V12.2725Z" fill="#FF5F00"/>
<path d="M22.704 17C22.7031 16.0894 22.9095 15.1906 23.3074 14.3715C23.7053 13.5525 24.2843 12.8347 25.0007 12.2725C24.1136 11.5753 23.0482 11.1417 21.9264 11.0213C20.8045 10.9009 19.6714 11.0985 18.6566 11.5916C17.6418 12.0847 16.7861 12.8534 16.1875 13.8098C15.5889 14.7662 15.2715 15.8717 15.2715 17C15.2715 18.1282 15.5889 19.2337 16.1875 20.1901C16.7861 21.1465 17.6418 21.9152 18.6566 22.4083C19.6714 22.9014 20.8045 23.099 21.9264 22.9786C23.0482 22.8582 24.1136 22.4246 25.0007 21.7274C24.2843 21.1652 23.7053 20.4474 23.3074 19.6284C22.9095 18.8094 22.7032 17.9105 22.704 17Z" fill="#EB001B"/>
<path d="M34.7295 17C34.7296 18.1282 34.4122 19.2337 33.8136 20.1901C33.215 21.1465 32.3594 21.9152 31.3446 22.4083C30.3298 22.9014 29.1967 23.099 28.0749 22.9786C26.953 22.8582 25.8877 22.4246 25.0007 21.7274C25.7164 21.1646 26.2949 20.4467 26.6928 19.6278C27.0906 18.8089 27.2973 17.9104 27.2973 17C27.2973 16.0895 27.0906 15.191 26.6928 14.3721C26.2949 13.5532 25.7164 12.8353 25.0007 12.2725C25.8877 11.5753 26.953 11.1417 28.0749 11.0213C29.1967 10.9009 30.3298 11.0985 31.3446 11.5916C32.3594 12.0848 33.215 12.8534 33.8136 13.8098C34.4122 14.7662 34.7296 15.8717 34.7295 17Z" fill="#F79E1B"/>
<path d="M34.1559 20.726V20.5324H34.2339V20.493H34.0351V20.5324H34.1132V20.726H34.1559ZM34.5418 20.726V20.4926H34.4809L34.4108 20.6531L34.3407 20.4926H34.2797V20.726H34.3227V20.5499L34.3885 20.7017H34.4331L34.4988 20.5495V20.726H34.5418Z" fill="#F79E1B"/>
</g>
<defs>
<filter id="filter0_d_650_1289" x="0" y="0" width="50" height="36" filterUnits="userSpaceOnUse" color-interpolation-filters="sRGB">
<feFlood flood-opacity="0" result="BackgroundImageFix"/>
<feColorMatrix in="SourceAlpha" type="matrix" values="0 0 0 0 0 0 0 0 0 0 0 0 0 0 0 0 0 0 127 0" result="hardAlpha"/>
<feOffset dy="1"/>
<feGaussianBlur stdDeviation="1"/>
<feComposite in2="hardAlpha" operator="out"/>
<feColorMatrix type="matrix" values="0 0 0 0 0.0627451 0 0 0 0 0.0941176 0 0 0 0 0.156863 0 0 0 0.04 0"/>
<feBlend mode="normal" in2="BackgroundImageFix" result="effect1_dropShadow_650_1289"/>
<feBlend mode="normal" in="SourceGraphic" in2="effect1_dropShadow_650_1289" result="shape"/>
</filter>
</defs>
</svg>
