<svg width="50" height="36" viewBox="0 0 50 36" fill="none" xmlns="http://www.w3.org/2000/svg">
<g filter="url(#filter0_d_650_1299)">
<path d="M2 10.6C2 7.23969 2 5.55953 2.65396 4.27606C3.2292 3.14708 4.14708 2.2292 5.27606 1.65396C6.55953 1 8.23969 1 11.6 1H38.4C41.7603 1 43.4405 1 44.7239 1.65396C45.8529 2.2292 46.7708 3.14708 47.346 4.27606C48 5.55953 48 7.23969 48 10.6V23.4C48 26.7603 48 28.4405 47.346 29.7239C46.7708 30.8529 45.8529 31.7708 44.7239 32.346C43.4405 33 41.7603 33 38.4 33H11.6C8.23968 33 6.55953 33 5.27606 32.346C4.14708 31.7708 3.2292 30.8529 2.65396 29.7239C2 28.4405 2 26.7603 2 23.4V10.6Z" fill="white"/>
<path d="M2.5 10.6C2.5 8.91159 2.50039 7.67536 2.58008 6.69993C2.6593 5.73034 2.81438 5.06255 3.09946 4.50305C3.62677 3.46816 4.46816 2.62677 5.50305 2.09946C6.06255 1.81438 6.73034 1.6593 7.69993 1.58008C8.67536 1.50039 9.91159 1.5 11.6 1.5H38.4C40.0884 1.5 41.3246 1.50039 42.3001 1.58008C43.2697 1.6593 43.9374 1.81438 44.4969 2.09946C45.5318 2.62677 46.3732 3.46816 46.9005 4.50305C47.1856 5.06255 47.3407 5.73034 47.4199 6.69993C47.4996 7.67536 47.5 8.91159 47.5 10.6V23.4C47.5 25.0884 47.4996 26.3246 47.4199 27.3001C47.3407 28.2697 47.1856 28.9374 46.9005 29.4969C46.3732 30.5318 45.5318 31.3732 44.4969 31.9005C43.9374 32.1856 43.2697 32.3407 42.3001 32.4199C41.3246 32.4996 40.0884 32.5 38.4 32.5H11.6C9.91159 32.5 8.67536 32.4996 7.69993 32.4199C6.73034 32.3407 6.06255 32.1856 5.50305 31.9005C4.46816 31.3732 3.62677 30.5318 3.09946 29.4969C2.81438 28.9374 2.6593 28.2697 2.58008 27.3001C2.50039 26.3246 2.5 25.0884 2.5 23.4V10.6Z" stroke="#E5E5E7"/>
<path fill-rule="evenodd" clip-rule="evenodd" d="M22.6568 23.2789L22.8787 21.796L22.3844 21.7839H20.0242L21.6645 10.8413C21.6696 10.8082 21.6861 10.7774 21.7102 10.7555C21.7345 10.7337 21.7654 10.7217 21.7977 10.7217H25.7774C27.0987 10.7217 28.0104 11.0109 28.4864 11.5818C28.7096 11.8496 28.8517 12.1296 28.9205 12.4376C28.9927 12.7608 28.9938 13.1469 28.9235 13.6179L28.9184 13.6522V13.9541L29.1416 14.0871C29.3295 14.192 29.4788 14.312 29.5934 14.4495C29.7843 14.6785 29.9077 14.9696 29.9599 15.3146C30.0139 15.6695 29.996 16.0919 29.9078 16.57C29.8059 17.1199 29.6413 17.599 29.419 17.9908C29.2145 18.3519 28.954 18.6515 28.6447 18.8836C28.3494 19.1042 27.9985 19.2716 27.6018 19.3788C27.2174 19.4841 26.7791 19.5372 26.2984 19.5372H25.9887C25.7673 19.5372 25.5522 19.6211 25.3833 19.7715C25.2139 19.9251 25.102 20.1349 25.0676 20.3643L25.0442 20.4979L24.6522 23.1116L24.6345 23.2075C24.6297 23.2379 24.6216 23.253 24.6097 23.2633C24.5992 23.2726 24.584 23.2789 24.5691 23.2789H22.6568Z" fill="#28356A"/>
<path fill-rule="evenodd" clip-rule="evenodd" d="M29.353 13.6871C29.3413 13.767 29.3276 13.8486 29.3124 13.9325C28.7876 16.7677 26.992 17.7471 24.6988 17.7471H23.5312C23.2507 17.7471 23.0143 17.9613 22.9707 18.2524L22.2036 23.3721C22.1752 23.5633 22.3152 23.7355 22.4984 23.7355H24.5694C24.8146 23.7355 25.0229 23.5481 25.0615 23.2936L25.0818 23.1829L25.4718 20.5795L25.4968 20.4367C25.535 20.1814 25.7438 19.9938 25.989 19.9938H26.2987C28.3051 19.9938 29.8758 19.1368 30.3349 16.6565C30.5266 15.6204 30.4274 14.7553 29.9199 14.1468C29.7664 13.9634 29.5759 13.8111 29.353 13.6871Z" fill="#298FC2"/>
<path fill-rule="evenodd" clip-rule="evenodd" d="M28.8038 13.4568C28.7236 13.4321 28.6409 13.4099 28.556 13.3898C28.4707 13.3701 28.3833 13.3527 28.2934 13.3375C27.9786 13.284 27.6336 13.2586 27.2641 13.2586H24.1448C24.0679 13.2586 23.995 13.2768 23.9297 13.3099C23.7858 13.3826 23.679 13.5259 23.653 13.7013L22.9894 18.1235L22.9707 18.2524C23.0143 17.9613 23.2507 17.7471 23.5312 17.7471H24.6988C26.992 17.7471 28.7876 16.7677 29.3124 13.9325C29.3276 13.8486 29.3413 13.767 29.353 13.6871C29.2203 13.6129 29.0762 13.5496 28.9213 13.4955C28.8831 13.4822 28.8436 13.4693 28.8038 13.4568Z" fill="#22284F"/>
<path fill-rule="evenodd" clip-rule="evenodd" d="M23.653 13.7013C23.679 13.5259 23.7858 13.3826 23.9297 13.3099C23.995 13.2768 24.0679 13.2586 24.1448 13.2586H27.2641C27.6336 13.2586 27.9786 13.284 28.2934 13.3375C28.3833 13.3527 28.4707 13.3701 28.556 13.3898C28.6409 13.4099 28.7236 13.4321 28.8038 13.4568C28.8436 13.4693 28.8831 13.4822 28.9213 13.4955C29.0762 13.5496 29.2203 13.6129 29.353 13.6871C29.5092 12.6394 29.3521 11.9261 28.8137 11.2801C28.2201 10.5689 27.1489 10.2645 25.778 10.2645H21.7982C21.5182 10.2645 21.2793 10.4787 21.2361 10.7703L19.5785 21.8254C19.5458 22.0441 19.7061 22.2414 19.9157 22.2414H22.3727L23.653 13.7013Z" fill="#28356A"/>
</g>
<defs>
<filter id="filter0_d_650_1299" x="0" y="0" width="50" height="36" filterUnits="userSpaceOnUse" color-interpolation-filters="sRGB">
<feFlood flood-opacity="0" result="BackgroundImageFix"/>
<feColorMatrix in="SourceAlpha" type="matrix" values="0 0 0 0 0 0 0 0 0 0 0 0 0 0 0 0 0 0 127 0" result="hardAlpha"/>
<feOffset dy="1"/>
<feGaussianBlur stdDeviation="1"/>
<feComposite in2="hardAlpha" operator="out"/>
<feColorMatrix type="matrix" values="0 0 0 0 0.0627451 0 0 0 0 0.0941176 0 0 0 0 0.156863 0 0 0 0.04 0"/>
<feBlend mode="normal" in2="BackgroundImageFix" result="effect1_dropShadow_650_1299"/>
<feBlend mode="normal" in="SourceGraphic" in2="effect1_dropShadow_650_1299" result="shape"/>
</filter>
</defs>
</svg>
