<svg width="32" height="32" viewBox="0 0 32 32" fill="none" xmlns="http://www.w3.org/2000/svg">
<path d="M8.21463 2.66666H23.7841C24.4869 2.66664 25.0933 2.66662 25.5927 2.70742C26.1199 2.75049 26.6441 2.84558 27.1486 3.10263C27.9013 3.48613 28.5132 4.09805 28.8967 4.8507C29.1538 5.35521 29.2489 5.8795 29.2919 6.40662C29.3327 6.90605 29.3327 7.51239 29.3327 8.21524V17.1181C29.3327 17.8209 29.3327 18.4273 29.2919 18.9267C29.2489 19.4538 29.1538 19.9781 28.8967 20.4826C28.5132 21.2353 27.9013 21.8472 27.1486 22.2307C26.6441 22.4877 26.1199 22.5828 25.5927 22.6259C25.0933 22.6667 24.4869 22.6667 23.7841 22.6667H17.3327V26.6667H23.9993C24.7357 26.6667 25.3327 27.2636 25.3327 28C25.3327 28.7364 24.7357 29.3333 23.9993 29.3333H7.99935C7.26297 29.3333 6.66602 28.7364 6.66602 28C6.66602 27.2636 7.26297 26.6667 7.99935 26.6667H14.666V22.6667H8.21462C7.51176 22.6667 6.90541 22.6667 6.40598 22.6259C5.87886 22.5828 5.35456 22.4877 4.85006 22.2307C4.09741 21.8472 3.48549 21.2353 3.10199 20.4826C2.84494 19.9781 2.74985 19.4538 2.70678 18.9267C2.66598 18.4273 2.66599 17.8209 2.66602 17.1181V8.21522C2.66599 7.5124 2.66598 6.90603 2.70678 6.40662C2.74985 5.8795 2.84494 5.35521 3.10199 4.8507C3.48549 4.09805 4.09741 3.48613 4.85006 3.10263C5.35456 2.84558 5.87886 2.75049 6.40598 2.70742C6.90539 2.66662 7.51181 2.66664 8.21463 2.66666Z" fill="#7C2AE8"/>
</svg>
