<svg width="32" height="32" viewBox="0 0 32 32" fill="none" xmlns="http://www.w3.org/2000/svg">
<path fill-rule="evenodd" clip-rule="evenodd" d="M22.7385 2.66667H9.26075C8.40071 2.66665 7.66922 2.66663 7.07695 2.71869C6.4606 2.77286 5.84404 2.89264 5.27826 3.22936C4.44927 3.72273 3.8265 4.49908 3.52472 5.41536C3.31875 6.0407 3.33558 6.66857 3.4164 7.28199C3.49406 7.87147 3.65276 8.5855 3.83935 9.42508L5.00415 14.6667H26.9951L28.1599 9.42505L28.16 9.42496C28.3465 8.58558 28.5052 7.87136 28.5829 7.28199C28.6637 6.66857 28.6805 6.0407 28.4746 5.41536C28.1728 4.49908 27.55 3.72273 26.721 3.22936C26.1552 2.89264 25.5387 2.77286 24.9223 2.71869C24.3301 2.66663 23.5986 2.66665 22.7385 2.66667ZM26.9952 17.3333H5.00425L3.05872 26.0882C2.68864 27.7536 3.9559 29.3333 5.66189 29.3333H26.3376C28.0436 29.3333 29.3108 27.7536 28.9407 26.0882L26.9952 17.3333ZM11.9997 24C11.9997 23.2636 12.5966 22.6667 13.333 22.6667H18.6663C19.4027 22.6667 19.9997 23.2636 19.9997 24C19.9997 24.7364 19.4027 25.3333 18.6663 25.3333H13.333C12.5966 25.3333 11.9997 24.7364 11.9997 24Z" fill="#7C2AE8"/>
</svg>
