<svg width="20" height="20" viewBox="0 0 20 20" fill="none" xmlns="http://www.w3.org/2000/svg">
<g clip-path="url(#clip0_1180_1658)">
<path d="M9.16699 1.66663L11.667 4.16663M11.667 4.16663L9.16699 6.66663M11.667 4.16663H5.66699C4.26686 4.16663 3.5668 4.16663 3.03202 4.43911C2.56161 4.67879 2.17916 5.06124 1.93948 5.53165C1.66699 6.06643 1.66699 6.76649 1.66699 8.16663V12.9166C1.66699 13.3036 1.66699 13.4972 1.68838 13.6596C1.83607 14.7814 2.71884 15.6642 3.84068 15.8119C4.00313 15.8333 4.19664 15.8333 4.58366 15.8333M8.33366 15.8333H14.3337C15.7338 15.8333 16.4339 15.8333 16.9686 15.5608C17.439 15.3211 17.8215 14.9387 18.0612 14.4683C18.3337 13.9335 18.3337 13.2334 18.3337 11.8333V7.08329C18.3337 6.69628 18.3337 6.50277 18.3123 6.34031C18.1646 5.21848 17.2818 4.33571 16.16 4.18801C15.9975 4.16663 15.804 4.16663 15.417 4.16663M8.33366 15.8333L10.8337 18.3333M8.33366 15.8333L10.8337 13.3333" stroke="#7C878E" stroke-width="2" stroke-linecap="round" stroke-linejoin="round"/>
</g>
<defs>
<clipPath id="clip0_1180_1658">
<rect width="20" height="20" fill="white"/>
</clipPath>
</defs>
</svg>
