<svg width="23" height="22" viewBox="0 0 23 22" fill="none" xmlns="http://www.w3.org/2000/svg">
<path d="M5 1C5 0.447715 4.55228 0 4 0C3.44772 0 3 0.447715 3 1V2.5H1.5C0.947715 2.5 0.5 2.94772 0.5 3.5C0.5 4.05228 0.947715 4.5 1.5 4.5H3V6C3 6.55228 3.44772 7 4 7C4.55228 7 5 6.55228 5 6V4.5H6.5C7.05228 4.5 7.5 4.05228 7.5 3.5C7.5 2.94772 7.05228 2.5 6.5 2.5H5V1Z" fill="#FCFDFE"/>
<path d="M5 16C5 15.4477 4.55228 15 4 15C3.44772 15 3 15.4477 3 16V17.5H1.5C0.947715 17.5 0.5 17.9477 0.5 18.5C0.5 19.0523 0.947715 19.5 1.5 19.5H3V21C3 21.5523 3.44772 22 4 22C4.55228 22 5 21.5523 5 21V19.5H6.5C7.05228 19.5 7.5 19.0523 7.5 18.5C7.5 17.9477 7.05228 17.5 6.5 17.5H5V16Z" fill="#FCFDFE"/>
<path d="M13.4333 1.64102C13.2848 1.25483 12.9138 1 12.5 1C12.0862 1 11.7152 1.25483 11.5667 1.64102L9.83248 6.14988C9.53207 6.93093 9.43768 7.156 9.30855 7.33759C9.17899 7.5198 9.0198 7.67899 8.83759 7.80855C8.656 7.93768 8.43093 8.03207 7.64988 8.33248L3.14102 10.0667C2.75483 10.2152 2.5 10.5862 2.5 11C2.5 11.4138 2.75483 11.7848 3.14102 11.9333L7.64988 13.6675C8.43093 13.9679 8.656 14.0623 8.83759 14.1914C9.0198 14.321 9.17899 14.4802 9.30855 14.6624C9.43768 14.844 9.53207 15.0691 9.83248 15.8501L11.5667 20.359C11.7152 20.7452 12.0862 21 12.5 21C12.9138 21 13.2848 20.7452 13.4333 20.359L15.1675 15.8501C15.4679 15.0691 15.5623 14.844 15.6914 14.6624C15.821 14.4802 15.9802 14.321 16.1624 14.1914C16.344 14.0623 16.5691 13.9679 17.3501 13.6675L21.859 11.9333C22.2452 11.7848 22.5 11.4138 22.5 11C22.5 10.5862 22.2452 10.2152 21.859 10.0667L17.3501 8.33248C16.5691 8.03207 16.344 7.93768 16.1624 7.80855C15.9802 7.67899 15.821 7.5198 15.6914 7.33759C15.5623 7.156 15.4679 6.93093 15.1675 6.14988L13.4333 1.64102Z" fill="#FCFDFE"/>
</svg>
