<svg width="17" height="14" viewBox="0 0 17 14" fill="none" xmlns="http://www.w3.org/2000/svg">
<path d="M16.7483 2.35408C16.1474 2.61946 15.5132 2.78532 14.8455 2.88484C15.5132 2.48677 16.0473 1.8565 16.2809 1.09353C15.6467 1.45843 14.9456 1.72381 14.1779 1.88967C13.577 1.2594 12.709 0.861328 11.7743 0.861328C9.97167 0.861328 8.50284 2.32091 8.50284 4.11221C8.50284 4.37759 8.53622 4.6098 8.60299 4.842C5.89901 4.70931 3.46209 3.41559 1.82635 1.42526C1.55929 1.92284 1.39238 2.4536 1.39238 3.0507C1.39238 4.17856 1.95988 5.17373 2.86121 5.77083C2.32709 5.73765 1.82635 5.60497 1.359 5.37276V5.40593C1.359 6.9982 2.494 8.32509 3.99621 8.62364C3.72915 8.68999 3.42871 8.72316 3.12827 8.72316C2.92797 8.72316 2.6943 8.68999 2.494 8.65682C2.92797 9.95053 4.12974 10.9125 5.56518 10.9125C4.43018 11.775 3.02812 12.3058 1.49253 12.3058C1.22547 12.3058 0.958409 12.3058 0.724731 12.2726C2.19356 13.2014 3.89606 13.7322 5.76548 13.7322C11.8077 13.7322 15.1126 8.75633 15.1126 4.44393C15.1126 4.31125 15.1126 4.14538 15.1126 4.0127C15.7468 3.58146 16.3143 3.01753 16.7483 2.35408Z" fill="#27272A"/>
</svg>
