<svg xmlns="http://www.w3.org/2000/svg" viewBox="0 0 33 29.33"><defs><style>.cls-1{fill:#030303;}</style></defs><g id="Layer_2" data-name="Layer 2"><g id="Layer_1-2" data-name="Layer 1"><path class="cls-1" d="M5.5,17.42a2.52,2.52,0,0,1,.78-1.83l4.13-3.9a3.7,3.7,0,0,1,.33-.21A3.72,3.72,0,0,0,7.33,9.17H3.67A3.66,3.66,0,0,0,0,12.83v5.5a1.82,1.82,0,0,0,1.78,1.84l.05,7.33a1.83,1.83,0,0,0,1.84,1.83H7.33A1.83,1.83,0,0,0,9.17,27.5V22L6.28,19.25A2.31,2.31,0,0,1,5.5,17.42Zm22-10.09a3.67,3.67,0,1,0-3.67-3.66A3.66,3.66,0,0,0,27.5,7.33Zm-22,0A3.67,3.67,0,1,0,1.83,3.67,3.66,3.66,0,0,0,5.5,7.33Zm20,9.59L21.33,13a.69.69,0,0,0-1.16.5v2.06H12.83V13.52a.69.69,0,0,0-.41-.63.61.61,0,0,0-.75.13l-4.13,3.9a.7.7,0,0,0,0,1l4.13,3.9a.69.69,0,0,0,.75.13.68.68,0,0,0,.41-.63V19.25h7.34v2.07a.68.68,0,0,0,.41.63.69.69,0,0,0,.75-.13l4.13-3.9A.7.7,0,0,0,25.46,16.92Zm3.87-7.75H25.67a3.72,3.72,0,0,0-3.41,2.31,3.7,3.7,0,0,1,.33.21l4.13,3.9a2.55,2.55,0,0,1,0,3.67L23.83,22V27.5a1.83,1.83,0,0,0,1.84,1.83h3.66a1.83,1.83,0,0,0,1.84-1.83V20.17A1.83,1.83,0,0,0,33,18.33v-5.5A3.66,3.66,0,0,0,29.33,9.17Z"/></g></g></svg>