<svg width="50" height="36" viewBox="0 0 50 36" fill="none" xmlns="http://www.w3.org/2000/svg">
<g filter="url(#filter0_d_650_1280)">
<path d="M2 10.6C2 7.23969 2 5.55953 2.65396 4.27606C3.2292 3.14708 4.14708 2.2292 5.27606 1.65396C6.55953 1 8.23969 1 11.6 1H38.4C41.7603 1 43.4405 1 44.7239 1.65396C45.8529 2.2292 46.7708 3.14708 47.346 4.27606C48 5.55953 48 7.23969 48 10.6V23.4C48 26.7603 48 28.4405 47.346 29.7239C46.7708 30.8529 45.8529 31.7708 44.7239 32.346C43.4405 33 41.7603 33 38.4 33H11.6C8.23968 33 6.55953 33 5.27606 32.346C4.14708 31.7708 3.2292 30.8529 2.65396 29.7239C2 28.4405 2 26.7603 2 23.4V10.6Z" fill="white"/>
<path d="M2.5 10.6C2.5 8.91159 2.50039 7.67536 2.58008 6.69993C2.6593 5.73034 2.81438 5.06255 3.09946 4.50305C3.62677 3.46816 4.46816 2.62677 5.50305 2.09946C6.06255 1.81438 6.73034 1.6593 7.69993 1.58008C8.67536 1.50039 9.91159 1.5 11.6 1.5H38.4C40.0884 1.5 41.3246 1.50039 42.3001 1.58008C43.2697 1.6593 43.9374 1.81438 44.4969 2.09946C45.5318 2.62677 46.3732 3.46816 46.9005 4.50305C47.1856 5.06255 47.3407 5.73034 47.4199 6.69993C47.4996 7.67536 47.5 8.91159 47.5 10.6V23.4C47.5 25.0884 47.4996 26.3246 47.4199 27.3001C47.3407 28.2697 47.1856 28.9374 46.9005 29.4969C46.3732 30.5318 45.5318 31.3732 44.4969 31.9005C43.9374 32.1856 43.2697 32.3407 42.3001 32.4199C41.3246 32.4996 40.0884 32.5 38.4 32.5H11.6C9.91159 32.5 8.67536 32.4996 7.69993 32.4199C6.73034 32.3407 6.06255 32.1856 5.50305 31.9005C4.46816 31.3732 3.62677 30.5318 3.09946 29.4969C2.81438 28.9374 2.6593 28.2697 2.58008 27.3001C2.50039 26.3246 2.5 25.0884 2.5 23.4V10.6Z" stroke="#E5E5E7"/>
<path fill-rule="evenodd" clip-rule="evenodd" d="M18.2139 20.8738H16.1413L14.5871 14.7701C14.5134 14.4894 14.3567 14.2411 14.1263 14.1241C13.5514 13.8302 12.9178 13.5962 12.2266 13.4782V13.2432H15.5653C16.0261 13.2432 16.3717 13.5962 16.4293 14.0061L17.2357 18.4089L19.3073 13.2432H21.3223L18.2139 20.8738ZM22.4739 20.8738H20.5165L22.1283 13.2432H24.0857L22.4739 20.8738ZM26.6189 15.3559C26.6765 14.945 27.0221 14.71 27.4253 14.71C28.0589 14.651 28.7491 14.769 29.3251 15.0619L29.6707 13.419C29.0947 13.184 28.4611 13.066 27.8861 13.066C25.9863 13.066 24.6039 14.123 24.6039 15.5899C24.6039 16.7059 25.5831 17.2918 26.2743 17.6448C27.0221 17.9968 27.3101 18.2318 27.2525 18.5838C27.2525 19.1117 26.6765 19.3467 26.1015 19.3467C25.4103 19.3467 24.7191 19.1707 24.0865 18.8767L23.741 20.5207C24.4321 20.8136 25.1799 20.9316 25.8711 20.9316C28.0013 20.9896 29.3251 19.9337 29.3251 18.3488C29.3251 16.3529 26.6189 16.2359 26.6189 15.3559ZM36.1742 20.8738L34.62 13.2432H32.9506C32.605 13.2432 32.2594 13.4782 32.1442 13.8302L29.2663 20.8738H31.2812L31.6834 19.7589H34.1592L34.3896 20.8738H36.1742ZM33.2389 15.2973L33.8139 18.1731H32.2021L33.2389 15.2973Z" fill="#172B85"/>
</g>
<defs>
<filter id="filter0_d_650_1280" x="0" y="0" width="50" height="36" filterUnits="userSpaceOnUse" color-interpolation-filters="sRGB">
<feFlood flood-opacity="0" result="BackgroundImageFix"/>
<feColorMatrix in="SourceAlpha" type="matrix" values="0 0 0 0 0 0 0 0 0 0 0 0 0 0 0 0 0 0 127 0" result="hardAlpha"/>
<feOffset dy="1"/>
<feGaussianBlur stdDeviation="1"/>
<feComposite in2="hardAlpha" operator="out"/>
<feColorMatrix type="matrix" values="0 0 0 0 0.0627451 0 0 0 0 0.0941176 0 0 0 0 0.156863 0 0 0 0.04 0"/>
<feBlend mode="normal" in2="BackgroundImageFix" result="effect1_dropShadow_650_1280"/>
<feBlend mode="normal" in="SourceGraphic" in2="effect1_dropShadow_650_1280" result="shape"/>
</filter>
</defs>
</svg>
